<mxfile host="Electron" modified="2023-10-28T06:07:49.009Z" agent="Mozilla/5.0 (Macintosh; Intel Mac OS X 10_15_7) AppleWebKit/537.36 (KHTML, like Gecko) draw.io/21.6.8 Chrome/114.0.5735.289 Electron/25.5.0 Safari/537.36" etag="ZBkeM5pFajTrBCpVmMPd" version="21.6.8" type="device">
  <diagram name="ページ1" id="IuZ-0YtHnomvB0ODm_JS">
    <mxGraphModel dx="1257" dy="765" grid="1" gridSize="10" guides="1" tooltips="1" connect="1" arrows="1" fold="1" page="1" pageScale="1" pageWidth="827" pageHeight="1169" math="0" shadow="0">
      <root>
        <mxCell id="0" />
        <mxCell id="1" parent="0" />
        <mxCell id="djypkVxxV7TOkNbvfPKl-1" value="User" style="sketch=0;outlineConnect=0;fontColor=#232F3E;gradientColor=none;fillColor=#232F3D;strokeColor=none;dashed=0;verticalLabelPosition=bottom;verticalAlign=top;align=center;html=1;fontSize=12;fontStyle=0;aspect=fixed;pointerEvents=1;shape=mxgraph.aws4.users;" vertex="1" parent="1">
          <mxGeometry y="120" width="78" height="78" as="geometry" />
        </mxCell>
        <mxCell id="djypkVxxV7TOkNbvfPKl-8" value="" style="endArrow=classic;html=1;rounded=0;" edge="1" parent="1">
          <mxGeometry width="50" height="50" relative="1" as="geometry">
            <mxPoint x="100" y="158.75" as="sourcePoint" />
            <mxPoint x="180" y="158.5" as="targetPoint" />
          </mxGeometry>
        </mxCell>
        <mxCell id="djypkVxxV7TOkNbvfPKl-10" value="" style="endArrow=classic;html=1;rounded=0;" edge="1" parent="1">
          <mxGeometry width="50" height="50" relative="1" as="geometry">
            <mxPoint x="100" y="190" as="sourcePoint" />
            <mxPoint x="180" y="270" as="targetPoint" />
          </mxGeometry>
        </mxCell>
        <mxCell id="djypkVxxV7TOkNbvfPKl-18" value="Dev" style="sketch=0;outlineConnect=0;fontColor=#232F3E;gradientColor=none;fillColor=#232F3D;strokeColor=none;dashed=0;verticalLabelPosition=bottom;verticalAlign=top;align=center;html=1;fontSize=12;fontStyle=0;aspect=fixed;pointerEvents=1;shape=mxgraph.aws4.users;" vertex="1" parent="1">
          <mxGeometry y="480" width="78" height="78" as="geometry" />
        </mxCell>
        <mxCell id="djypkVxxV7TOkNbvfPKl-19" value="ECS Exec" style="endArrow=classic;html=1;rounded=0;" edge="1" parent="1">
          <mxGeometry width="50" height="50" relative="1" as="geometry">
            <mxPoint x="100" y="518.75" as="sourcePoint" />
            <mxPoint x="180" y="518.5" as="targetPoint" />
          </mxGeometry>
        </mxCell>
        <mxCell id="djypkVxxV7TOkNbvfPKl-27" value="TiDB" style="shape=image;verticalLabelPosition=bottom;labelBackgroundColor=default;verticalAlign=top;aspect=fixed;imageAspect=0;image=data:image/png,iVBORw0KGgoAAAANSUhEUgAAAMgAAADICAYAAACtWK6eAAAVvUlEQVR4nOzde3RU5b0+8CeZmUwyt9x+JPyM9JhoNTk21AVljnqgq5zEnmKx6fRULgESURMpDEoSNUwIKgUzCQhBGAsmgmSUiHiZ5qDCapNTPaGeNhyQEm3Si4k9kpaAuc2VueasBGKVA2Mue8+7Z8/3s5b/mMm7n7XIs/bes9/33dLh4WEQQq4umnUA8nfeji7FyH+sc5C/o4IIgK+nV9FXsH51r3bxR73axaesVXVFvp7eWNa5CBBFl1hsWavqvmU11r8EIPOKH7VrDEWLNBXFnYyiESoIO05L8z8OGWor/D3nlwCQXONj/hhtdoNKn/+0QpfbFeKIhArCxrk5i7b4Ors3TOR3pJnpG6afOFzFXypyNVSQEPF2dEU7zE2FdlPjSDFunOQwnSp9/mZlQd4hWVZGgOOI5CqoICHgtDTf1l9geOUq9xmTdTrJbFyq0OXS/QnPqCA8clqab7FW1ZX5OruXA4jjeHiHNDO9IfG5ymfk2pndHI9NLqOC8KSvYP29LkuLGQDfX9c64nQ5i5LN1e/wfJyIRM9BOGYzHZx/Vj2n2WVpORSCcoxQuiwtR87NWfSWzXTwzhAcL6LQGYQj3o6uab3axbsALGEc5UBq26slsqyMQcY5RIEKMkXutjOJdlPjT1yWFj2A/886z2Wfxulydqr0+fvl2plUlCmggkySu+1Mqt3UuMZlaVkDIIl1nmvojdPlPKfS5/9Mrp3ZxzpMOKKCTMKFBQ8tcR8/9SyAFNZZxqlHYyh6UFNRfIx1kHBDBZkAa1XdvzjMTQZ/z/lc1lkmQ5KWcjTeWFKi0OX+gXWWcEEFGQdvR1fsYGnNBvfxU5Wss3DgojQz/VCyubpYlpXhZR1G6KggQfh6euXOhqZlVmP94wBuYZ2HY+0aQ1G1ojDvDWlaqpt1GKGiglyDtaou02qsfwXAbayz8Ow3097Zu1Q+b/YnrIMIERXkCk5Lc4bd1Lje09Z+f5Bp6GLjidFm16v0+VUKXe5fWYcREirIF5ybs6jc19ldzToHQ744XU5psrl6N+sgQkFTTQAMGmqXnFXP+TDCyzFC6rK07DqrnvPBoKFWxzqMEET0GcRpac7sLzC8BOBbrLMI1PEks7EwklczRmRBvB1dCquxbp3L0rIegJp1HoEbjNPlbNEYivfIsjKcrMOEWkQVxNvRlTCg31LmaWsvAaBknSfMjBTlGY2heJcsK8PGOkyoRExBbKaDdzoamtb7Oru/T/dek+aTZqY3KQvznlbrl33AOkwoiL4gNtPB+UOGnRsAzKdicCYgzUz/hbIwb7Nav+x91mH4JNqCCGh9htiJev2J6AryhfUZDwNIZZ0nQvTE6XJ2iHH9iagKYq2q+57VWP8CgDTWWSLUxxpD0X2aiuLjrINwRRQFcVqabxky1G7z95y/h3UWMjqt/s0ks7FMrp0Z9vO7wrog3o4u2WBpTan7+KmnQrRBAhk/h3zurPKEHeV7wnmTu7AsiK+nV+ZsaPqR1VhfAWAm6zzk2iRpKf+tLMgzKgrzmqRpqX7WeSYq7Aribj15w4W7V70M4J9ZZyET8u7lafXnWAeZiLApiNPSfJ3d1FjuaWtfBSCGdR4+yLJvRmDIBv///I11FL44YrTZexNNlTWyrIwLrMOMR1gUpK9g/WqXpeVZAFLWWfgQpYiFuvxBaNbmI+D1wbpxN+wvvAEEwvbS/atcjNPlrEo2VzewDvJVBF2QQUNtnt3UuBHAbNZZ+BAVK4diyQKoH1kB6U1f+9LPPCc/gnVHAy6+/R7gF21Rfh1vXLdFrV8m2N1WBFmQQUNtvt3UOHIDfivrLHyIUsZBueIHUD28HNIZ04N+1vvhn2CtNcP18xbAI9o9Fk6r9PlbEowlb7AOciVBFcTdelI1UFpT7+vsFu30kJg530BS3ab/c8b4Kp7f/A59D2wU8/0JpJnpBxJ3lP9EPm/2RdZZxgiiIF9Yn/EYgATWefggu/UmqMvug+Lef538IF4v7C/+HLZnXoT/b2FxjzsZ5+N0OVuFsv6EeUH6Ctbf7bK0HBRrMSCRQLNpDTSPrOBuTJ8fg+t3wP78Ye7GFJ5zakPRkviK4vdYhmBWENGvz4iKgqIwD5pHV0L6D9fxcgjPmT/CWl2Pi0fe5WV8ARhbf2JU65edZBEg5AXxdnQl9GoXbwOwUqzb6kQnJyDphU2IzQ3N6zoc5iYMlm7FsNsTkuMx4JfPnbUnYUd5eagvu0JWEF9Pr2bIULvSZWkpAzAjJAcNsehEDVRrl0G1ZimiFVy/cS04f28fbM++BHvda4B4i/JJnC5nW7yx5IA0LTUkRQlJQS7vHvLWFN7uKnhx/3YXkvY+Ofpsg6WRovStrICn9RTTHDzrTDIbFyh0ubzPFua1IO62Mzf0Fxi2+nvOf0+su4fI5/8TNI+thHyegJ5l+vxwvv0ebNv2w/s70W7kPihJS3k7yWx8XK6dydtukLwUxNvRFT1YWlPkPn5qu1h3D4lOSUbi9scQ98Mc1lGuzR+A/YXXMfTEbgw7BfNogWuD8rmzSqYdff4AH4NzWhBfT6/E2dC00GFu2uDvOT+Hs4EFJDopHsqiH0NVfC8kKcms44yL75Me2Ha9DOfBt0RbFElayq+VBXmbFYV5v5CmpXL2R81ZQdytJ6dfuHuVGcBdnAwoQLG5dyBx75OQpIZHMa7k7ejCZz9eJ/an8W8n7ihfLp83m5O18VMuiLeja9rlzdj0Yr2ckt5yA9QPL4eyII91lCkLDNngOtqKoSdMCIj3abw1Rpu9K9FUuX2qu61MuiDejq7YAf2WrZ629ofEvD5DXVoIRd58QCZjHYdTAYdr9JJraOMu0V52ja0/SWnZ/+hkB5j0+gqXpXm6p6197WR/X8g+X5/xyApAIr6H/CNGzh6Ol4+IuRwjlJ629jIAoS+IGAVbnyEWvr/8Fc7Dx2DbfgDDDhfrOIJHBblMlnUjkl7cMjrrVqwuNr+PvhUGDNuZT5INGxFfEOmNM0anoSvzF4r2csrddga2HWZcfOc/AQEsbwgnEV0Q9eMPIH7jKtYxeBOwOTBkqIXjpSNiXt/Oq8grSFQU5N+eDU35g8KaHsKhgNU+Wgq7qRH+s2G1y47gRFRBouJVSNy9AQpdLusovPGcaEd/0ZPwffwp6yiiEBEFiVIpoFq9BOq1yxGdIMo5k/B+9GdYt+6H681fso4iKqIvSOyCeUiq34ToeHEWA/4ABit3wW46yDqJKIm2IDF33DY6DT0253YgWoTfTvn8cB1rHf12auSyivBDdAUZuc9IqCmDctlC1lF44+8bRP+DT8Dd/F+so4ieaAoyUgxlQR7U+mWQXDeNdRxeBPqHYN1phuP5w2KfIiIY4V+Q6GgoCn6A+CdWQzItkXUaXvh7+2B95kU49r0BeH2s40SUsC6I7LZMJDdUQZohyj0gRtn3vYHBsm2AP+xerSEKYVmQsfUZisULECUX5Ux7uN56F7ZtL8Jz6veso0S08CqITAr1ugLEGx4U3fqMMb6z5zBQ/BTcrUz2SSNXCKuCxD+1ZvTMIWa9ty/F8JCddQxeyG69CbJZWXC+dIR1lHELqwcEUXFs95wKBVGWQyJBfNU6pP7mFcTeFZrdJrkSVmcQEmZkUiiX3wP14/dDen3w96AIFRWE8EIs3zBSQQinohM1o1+kqNYsFcU3jFQQwpm4Rd9D0nOVzPcn5hIVhEyZIPcn5ggVhEza6P7Ez65H3MLvsI7CGyoImTBJWioS9zyB2Pla1lF4RwUh4xadmgz16qVQPvAj8S5AuwIVhIyLYvECJGwtG93dPpJQQUhQsuybkVBTKsob8PGggpCrioT9iceDCkK+JBL2J54IKgj5nPTmG5BsNop6f+KJooKQiNifeLKoIEEEbA5Eq0X50qzPqVYvGd0FhlwdFeQqvH/ohq3WjGGfD8kvbGYdh1difgrOBTqffpHXi6GqOvTekT/6ejJ4vKwTEcboDAJg2O2B881m2HYcgK+zm3UcIiARXZDRF1keege2Z1+Gv/ss6zhEgCK2IL6z5/CZ7hH4OrtYRyECFnEF8Z/7DPY9h0Y3ZBPlBgmEUxFVEOerRzH42DMIDFhZRyFhQvwFCQRw8d0TsG7dB8+vP2CdhoQZURckMGRD/0ObcPHt91hHIWFKlAUJDNpg/9krsP3sFbrPIFMiuoK43noX/as2UTEIJ0RTEPf7p2Gtrof73RP0snzCGVEUxFpVB6uxnnUMIkLhWxB/AI5Xj8K2/UX4/vgX1mmISIVlQbwdXegvrIC342PWUYjIhVVBfN09GHjEODp/il5iSUIhrApi300vyyehRetBCAmCCkJIEFQQQoKgghASBBWEkCCoIIQEQQUhJAgqCCFBUEEICYIKQkgQVBBCgqCCEBIEFYSQIKgghARBBSEkCCoIIUFQQQgJggpCSBBUEEKCoIIQEgQVhJAgqCCEBEEFISQIKgghQVBBCAmCCkJIEFQQQoKgghASBBWEkCCoIIQEQQUhJAgqCAmpYZebdYQJCasX6JAw5g/AZmqEtep51kkmhApC+OXzw3nkV7BtPwDv7/7AOs2EUUEIb/y9fegrWA/P+6dZR5k0KgjhXGDINvruevu+NwG3h3WcKaGCEM74LwzAUf8a7PWvIfDZIOs4nKCCEE64jrViYM3TCJzvYx2FU1QQMiXu9z+AtXof3L/6LesovKCCkEkZvuhG/5otcB0+xjoKr6ggZEICThccew/DtvsgAp8NsI7DOyoIGbeL//Fb9N9fiUCfOG7Ax4MKQr6S+8SHow/6Lh5rHX0iHkmoICSokUupocpdQCCyijGGCkKuymlphq1mH7wf/Zl1FKaoIORLfN1n0f/ARnhOfMg6iiBQQcgo36fnYDc1wvHSv2PY5mAdRzCoIBFu2B+Ao+HnGNzwLIaH7KzjCM6kF0zF6XLPx2izzQD83EYSDu+ZP45+tSnmG9SBVU9hQP+0WMvhj9Fm109lgKjh4eEpJXBammfYTY0bPG3tKwHETGkwgYr51q1Ql92HuIXf4f1YZ9VzeD9GBPDEaLP3qvT5RoUu99xUBppyQcZYq+pushrrGwGI9l9YWZiHeGMJotVK3o5BBZmy1mnv7M2Xz5t9lovBOCvICF9Pr9zZ0LTIaqw3AMjibGABkVw/HSp9PpQr7kG0RsX5+FSQyZGkpZxWFuRVKwrz3pSmpXq5GpfTgozxdnTJBktrKtzHT1WI9bJLeuMMJNVvQsycbE7HpYJMmEM+d9bmhB3l22RZGZzfLPJSkDFOS3PmkKF2l7/n/LcByHk7EENxuhyoH70fMTNv5mQ8Ksi4uSRpKc3xxpIyhS73T3wdhNeCjHFammf1FxjeBjCd94MxotIvQ8LmtYBUMqVxqCDj8mmS2fh9hS63ne8DhaQgI9xtZ6bZTY2rXZaW1QBSQnLQEJOkpUL96H1QFeYBMtmkxqCCBPW3OF2OSaXP3yPXzgzJXPuQFWSM09I8vb/AUA9gYUgPHELSjOuRVP9TxGgnfn9CBbmmQ6ltr66RZWX0h/KgIS/IGJvp4HeHDDsrAcxjEoBvMTKo1iyFeu1ySKYljvvXqCBfEpBmprcoC/OeVuuXvcciALOCjOkrWJ/vsrTsAxDLNAhPouQxSNi9Acqld4/r81SQzw3G6XKKk83Vr7EMwbwguPS18LQB/ZYyT1u7HgB/T+EYirnzNmjKViL2u3cG/RwVBNYYbfauRFPldllWBvOli4IoyBh368n/d+HuVY0A7mKdhS+xuXcgce+TkKQmX/XnkVwQaWb6kcQd5QXyebOZF2OMoAqCS0/jJXZTY5Hd1FgBYAbrPHyIToqHsujHUBXfC0nKl4sSoQX5k0qfb1Tp8w9I01IF9QcpuIKM8XZ0RTvMTcvspsaNAL7OOg8fouJVUBbkjd7MS9NSR/9fhBWkXaXPr0owlhxiHeRaBFuQLzo3Z9GTvs7up1jn4MtIURJqyqBctjBSCuKTZqZXTD9xeBvrIF8lLAqCS89Pvm43NVZ62tqXAZja42qBitF+A542US919cdos/ePnDUUutxPWIcZj7ApyBhrVd03Lk+r53aWIOHbSY2haImmojisdoEIu4Lg0o28YshQu8JlaXkUwE2s85CgOjSGomcUhXkHpWmp4fX+tXAtyBhvR5disLRmk/v4qRKxXnaFMY987qytCTvKfyrLyuBsfUaohXVBxthMB79pNzWa/D3n57LOQkYXL/0y3liyTqHL/T3rLFMlioKMubDgoeXu46d2Arj6UzjCt3PyubPWTjv6/Ousg3BFVAXBpWn119lNjWtdlpZVABJY54kQn8Xpcvao9PnPybUze1mH4ZLoCjLGaWme0V9gMAPgfyuSyHYsyWxcOdXdQ4Rq0vtiCZ1Cl/vp9bYT81X6/B8COMk6jwi1xhvXLbjedmKBWMsBMZ9BrmQzHbxryLBzo2jXn4QG8/UZoRYxBcGly66R+5NyT1v7KrHutsIjR4w2e2+iqbJGlpVxgXWYUImogozxdnQlDei3PO5pa18n1t1WOOSK0WZvSzRV1gphfUaoRWRBxlzebeVVehp/TR8mmY35odg9RKgiuiC4vMmdw9y00m5qrBTr+pNJGF2foSzIa+BjM7ZwEvEFGeNuPSkdKK2p9nV2l7HOwpI0M33z9BOHn2CdQyioIFdwWpqzhwy1G/095+9lnSWE/JK0lFfijSVPK3S5nazDCAkV5BqsVXW3W431ZrGuZvyCjzSGouWaiuLTrIMIERUkCF9Pr2bIULvSZWkpBfA11nk41hWny9kebyw5IE1LdbIOI1RUkHHwdnQl9GoXbwPwIOssHPBLM9PfSTZXL5FlZVAxvgIVZAKsVXV5DnPTBn/P+bBcOC5JSzmu0uc/HKfLPS203UOEigoyQd6OrujB0poi9/FTWwFoWOcZp0H53Fkl044+f4B1kHBDBZkkd9uZGwbWbCn1dXbfB0DNOs81DEoz0/cnPle5Xa6d+VfWYcIRFWSK3G1npttNjY8IbP3J2PqM3XLtzIiZN8UHKghHBLT+5K0ks7FIzFPQQ0m060FC7Yr1JycYRBhbn3EPlYM7dAbhSV/B+odclpbnQrDbiufyawIaeD5ORKKC8MhmOvhNR0PTBl9ntw6AlOPh3dLM9Nc1FcVVYtg9RKioICEwVFU3z3ZpN8jrORryz2pD0fL4iuLfcjQeuQYqSIh4O7piHeamh+ymxvVTeNvvpyp9frWyIK8+nDdjCydUkBBzt56MHSit2eXr7C6ayO9JM9N3Ju4of0w+b7aPv3TkSlQQRqxVdbc7zE0V/p7z9wT7nCQt5fXL09Bpti0DVBDGrFV1uVZj/f6rrGb8WGMouk9TUXycUTRCBREGd9uZRLup8ScuS4segC9Ol7Mz3ljygjQt1co6W6SjggiIt6MrCUAgEncPESoqCCFB/G8AAAD///1YUa2mt6SiAAAAAElFTkSuQmCC;" vertex="1" parent="1">
          <mxGeometry x="960" y="320" width="80" height="80" as="geometry" />
        </mxCell>
        <mxCell id="djypkVxxV7TOkNbvfPKl-30" value="TiDB" style="points=[[0,0],[0.25,0],[0.5,0],[0.75,0],[1,0],[1,0.25],[1,0.5],[1,0.75],[1,1],[0.75,1],[0.5,1],[0.25,1],[0,1],[0,0.75],[0,0.5],[0,0.25]];outlineConnect=0;gradientColor=none;html=1;whiteSpace=wrap;fontSize=12;fontStyle=0;container=1;pointerEvents=0;collapsible=0;recursiveResize=0;shape=mxgraph.aws4.group;grIcon=mxgraph.aws4.group_on_premise;strokeColor=#5A6C86;fillColor=none;verticalAlign=top;align=left;spacingLeft=30;fontColor=#5A6C86;dashed=0;movable=1;resizable=1;rotatable=1;deletable=1;editable=1;locked=0;connectable=1;" vertex="1" parent="1">
          <mxGeometry x="920" y="280" width="160" height="160" as="geometry" />
        </mxCell>
        <mxCell id="djypkVxxV7TOkNbvfPKl-31" value="" style="endArrow=classic;html=1;rounded=0;edgeStyle=orthogonalEdgeStyle;" edge="1" parent="1">
          <mxGeometry width="50" height="50" relative="1" as="geometry">
            <mxPoint x="540" y="260" as="sourcePoint" />
            <mxPoint x="580" y="180" as="targetPoint" />
            <Array as="points">
              <mxPoint x="540" y="180" />
            </Array>
          </mxGeometry>
        </mxCell>
        <mxCell id="djypkVxxV7TOkNbvfPKl-3" value="CloudFront" style="sketch=0;points=[[0,0,0],[0.25,0,0],[0.5,0,0],[0.75,0,0],[1,0,0],[0,1,0],[0.25,1,0],[0.5,1,0],[0.75,1,0],[1,1,0],[0,0.25,0],[0,0.5,0],[0,0.75,0],[1,0.25,0],[1,0.5,0],[1,0.75,0]];outlineConnect=0;fontColor=#232F3E;gradientColor=#945DF2;gradientDirection=north;fillColor=#5A30B5;strokeColor=#ffffff;dashed=0;verticalLabelPosition=bottom;verticalAlign=top;align=center;html=1;fontSize=12;fontStyle=0;aspect=fixed;shape=mxgraph.aws4.resourceIcon;resIcon=mxgraph.aws4.cloudfront;" vertex="1" parent="1">
          <mxGeometry x="200" y="120" width="78" height="78" as="geometry" />
        </mxCell>
        <mxCell id="djypkVxxV7TOkNbvfPKl-4" value="" style="sketch=0;points=[[0,0,0],[0.25,0,0],[0.5,0,0],[0.75,0,0],[1,0,0],[0,1,0],[0.25,1,0],[0.5,1,0],[0.75,1,0],[1,1,0],[0,0.25,0],[0,0.5,0],[0,0.75,0],[1,0.25,0],[1,0.5,0],[1,0.75,0]];outlineConnect=0;fontColor=#232F3E;gradientColor=#F54749;gradientDirection=north;fillColor=#C7131F;strokeColor=#ffffff;dashed=0;verticalLabelPosition=bottom;verticalAlign=top;align=center;html=1;fontSize=12;fontStyle=0;aspect=fixed;shape=mxgraph.aws4.resourceIcon;resIcon=mxgraph.aws4.waf;" vertex="1" parent="1">
          <mxGeometry x="270" y="90" width="40" height="40" as="geometry" />
        </mxCell>
        <mxCell id="djypkVxxV7TOkNbvfPKl-5" value="API Gateway" style="sketch=0;points=[[0,0,0],[0.25,0,0],[0.5,0,0],[0.75,0,0],[1,0,0],[0,1,0],[0.25,1,0],[0.5,1,0],[0.75,1,0],[1,1,0],[0,0.25,0],[0,0.5,0],[0,0.75,0],[1,0.25,0],[1,0.5,0],[1,0.75,0]];outlineConnect=0;fontColor=#232F3E;gradientColor=#945DF2;gradientDirection=north;fillColor=#5A30B5;strokeColor=#ffffff;dashed=0;verticalLabelPosition=bottom;verticalAlign=top;align=center;html=1;fontSize=12;fontStyle=0;aspect=fixed;shape=mxgraph.aws4.resourceIcon;resIcon=mxgraph.aws4.api_gateway;" vertex="1" parent="1">
          <mxGeometry x="400" y="120" width="78" height="78" as="geometry" />
        </mxCell>
        <mxCell id="djypkVxxV7TOkNbvfPKl-6" value="Lambda" style="sketch=0;points=[[0,0,0],[0.25,0,0],[0.5,0,0],[0.75,0,0],[1,0,0],[0,1,0],[0.25,1,0],[0.5,1,0],[0.75,1,0],[1,1,0],[0,0.25,0],[0,0.5,0],[0,0.75,0],[1,0.25,0],[1,0.5,0],[1,0.75,0]];outlineConnect=0;fontColor=#232F3E;gradientColor=#F78E04;gradientDirection=north;fillColor=#D05C17;strokeColor=#ffffff;dashed=0;verticalLabelPosition=bottom;verticalAlign=top;align=center;html=1;fontSize=12;fontStyle=0;aspect=fixed;shape=mxgraph.aws4.resourceIcon;resIcon=mxgraph.aws4.lambda;" vertex="1" parent="1">
          <mxGeometry x="600" y="120" width="78" height="78" as="geometry" />
        </mxCell>
        <mxCell id="djypkVxxV7TOkNbvfPKl-7" value="S3" style="sketch=0;points=[[0,0,0],[0.25,0,0],[0.5,0,0],[0.75,0,0],[1,0,0],[0,1,0],[0.25,1,0],[0.5,1,0],[0.75,1,0],[1,1,0],[0,0.25,0],[0,0.5,0],[0,0.75,0],[1,0.25,0],[1,0.5,0],[1,0.75,0]];outlineConnect=0;fontColor=#232F3E;gradientColor=#60A337;gradientDirection=north;fillColor=#277116;strokeColor=#ffffff;dashed=0;verticalLabelPosition=bottom;verticalAlign=top;align=center;html=1;fontSize=12;fontStyle=0;aspect=fixed;shape=mxgraph.aws4.resourceIcon;resIcon=mxgraph.aws4.s3;" vertex="1" parent="1">
          <mxGeometry x="200" y="280" width="78" height="78" as="geometry" />
        </mxCell>
        <mxCell id="djypkVxxV7TOkNbvfPKl-11" value="" style="endArrow=classic;html=1;rounded=0;" edge="1" parent="1">
          <mxGeometry width="50" height="50" relative="1" as="geometry">
            <mxPoint x="300" y="158.75" as="sourcePoint" />
            <mxPoint x="380" y="158.5" as="targetPoint" />
          </mxGeometry>
        </mxCell>
        <mxCell id="djypkVxxV7TOkNbvfPKl-12" value="" style="endArrow=classic;html=1;rounded=0;" edge="1" parent="1">
          <mxGeometry width="50" height="50" relative="1" as="geometry">
            <mxPoint x="500" y="158.75" as="sourcePoint" />
            <mxPoint x="580" y="158.5" as="targetPoint" />
          </mxGeometry>
        </mxCell>
        <mxCell id="djypkVxxV7TOkNbvfPKl-13" value="Simple Queue&lt;br&gt;Service" style="sketch=0;points=[[0,0,0],[0.25,0,0],[0.5,0,0],[0.75,0,0],[1,0,0],[0,1,0],[0.25,1,0],[0.5,1,0],[0.75,1,0],[1,1,0],[0,0.25,0],[0,0.5,0],[0,0.75,0],[1,0.25,0],[1,0.5,0],[1,0.75,0]];outlineConnect=0;fontColor=#232F3E;gradientColor=#FF4F8B;gradientDirection=north;fillColor=#BC1356;strokeColor=#ffffff;dashed=0;verticalLabelPosition=bottom;verticalAlign=top;align=center;html=1;fontSize=12;fontStyle=0;aspect=fixed;shape=mxgraph.aws4.resourceIcon;resIcon=mxgraph.aws4.sqs;" vertex="1" parent="1">
          <mxGeometry x="700" y="280" width="78" height="78" as="geometry" />
        </mxCell>
        <mxCell id="djypkVxxV7TOkNbvfPKl-14" value="Event" style="sketch=0;points=[[0,0,0],[0.25,0,0],[0.5,0,0],[0.75,0,0],[1,0,0],[0,1,0],[0.25,1,0],[0.5,1,0],[0.75,1,0],[1,1,0],[0,0.25,0],[0,0.5,0],[0,0.75,0],[1,0.25,0],[1,0.5,0],[1,0.75,0]];outlineConnect=0;fontColor=#232F3E;gradientColor=#FF4F8B;gradientDirection=north;fillColor=#BC1356;strokeColor=#ffffff;dashed=0;verticalLabelPosition=bottom;verticalAlign=top;align=center;html=1;fontSize=12;fontStyle=0;aspect=fixed;shape=mxgraph.aws4.resourceIcon;resIcon=mxgraph.aws4.eventbridge;" vertex="1" parent="1">
          <mxGeometry x="500" y="280" width="78" height="78" as="geometry" />
        </mxCell>
        <mxCell id="djypkVxxV7TOkNbvfPKl-15" value="ECR" style="sketch=0;points=[[0,0,0],[0.25,0,0],[0.5,0,0],[0.75,0,0],[1,0,0],[0,1,0],[0.25,1,0],[0.5,1,0],[0.75,1,0],[1,1,0],[0,0.25,0],[0,0.5,0],[0,0.75,0],[1,0.25,0],[1,0.5,0],[1,0.75,0]];outlineConnect=0;fontColor=#232F3E;gradientColor=#F78E04;gradientDirection=north;fillColor=#D05C17;strokeColor=#ffffff;dashed=0;verticalLabelPosition=bottom;verticalAlign=top;align=center;html=1;fontSize=12;fontStyle=0;aspect=fixed;shape=mxgraph.aws4.resourceIcon;resIcon=mxgraph.aws4.ecr;" vertex="1" parent="1">
          <mxGeometry x="600" y="480" width="78" height="78" as="geometry" />
        </mxCell>
        <mxCell id="djypkVxxV7TOkNbvfPKl-16" value="Fargate" style="sketch=0;points=[[0,0,0],[0.25,0,0],[0.5,0,0],[0.75,0,0],[1,0,0],[0,1,0],[0.25,1,0],[0.5,1,0],[0.75,1,0],[1,1,0],[0,0.25,0],[0,0.5,0],[0,0.75,0],[1,0.25,0],[1,0.5,0],[1,0.75,0]];outlineConnect=0;fontColor=#232F3E;gradientColor=#F78E04;gradientDirection=north;fillColor=#D05C17;strokeColor=#ffffff;dashed=0;verticalLabelPosition=bottom;verticalAlign=top;align=center;html=1;fontSize=12;fontStyle=0;aspect=fixed;shape=mxgraph.aws4.resourceIcon;resIcon=mxgraph.aws4.fargate;" vertex="1" parent="1">
          <mxGeometry x="400" y="480" width="78" height="78" as="geometry" />
        </mxCell>
        <mxCell id="djypkVxxV7TOkNbvfPKl-17" value="Systems&lt;br&gt;Manager" style="sketch=0;points=[[0,0,0],[0.25,0,0],[0.5,0,0],[0.75,0,0],[1,0,0],[0,1,0],[0.25,1,0],[0.5,1,0],[0.75,1,0],[1,1,0],[0,0.25,0],[0,0.5,0],[0,0.75,0],[1,0.25,0],[1,0.5,0],[1,0.75,0]];points=[[0,0,0],[0.25,0,0],[0.5,0,0],[0.75,0,0],[1,0,0],[0,1,0],[0.25,1,0],[0.5,1,0],[0.75,1,0],[1,1,0],[0,0.25,0],[0,0.5,0],[0,0.75,0],[1,0.25,0],[1,0.5,0],[1,0.75,0]];outlineConnect=0;fontColor=#232F3E;gradientColor=#F34482;gradientDirection=north;fillColor=#BC1356;strokeColor=#ffffff;dashed=0;verticalLabelPosition=bottom;verticalAlign=top;align=center;html=1;fontSize=12;fontStyle=0;aspect=fixed;shape=mxgraph.aws4.resourceIcon;resIcon=mxgraph.aws4.systems_manager;" vertex="1" parent="1">
          <mxGeometry x="200" y="480" width="78" height="78" as="geometry" />
        </mxCell>
        <mxCell id="djypkVxxV7TOkNbvfPKl-21" value="Login" style="endArrow=classic;html=1;rounded=0;" edge="1" parent="1">
          <mxGeometry width="50" height="50" relative="1" as="geometry">
            <mxPoint x="300" y="518.75" as="sourcePoint" />
            <mxPoint x="380" y="518.5" as="targetPoint" />
          </mxGeometry>
        </mxCell>
        <mxCell id="djypkVxxV7TOkNbvfPKl-22" value="" style="endArrow=classic;html=1;rounded=0;" edge="1" parent="1">
          <mxGeometry width="50" height="50" relative="1" as="geometry">
            <mxPoint x="579" y="518.5" as="sourcePoint" />
            <mxPoint x="499" y="518.5" as="targetPoint" />
          </mxGeometry>
        </mxCell>
        <mxCell id="djypkVxxV7TOkNbvfPKl-32" value="" style="endArrow=classic;html=1;rounded=0;edgeStyle=orthogonalEdgeStyle;" edge="1" parent="1">
          <mxGeometry width="50" height="50" relative="1" as="geometry">
            <mxPoint x="540" y="380" as="sourcePoint" />
            <mxPoint x="440" y="460" as="targetPoint" />
            <Array as="points">
              <mxPoint x="540" y="420" />
              <mxPoint x="440" y="420" />
            </Array>
          </mxGeometry>
        </mxCell>
        <mxCell id="djypkVxxV7TOkNbvfPKl-33" value="" style="endArrow=classic;html=1;rounded=0;" edge="1" parent="1">
          <mxGeometry width="50" height="50" relative="1" as="geometry">
            <mxPoint x="640" y="460" as="sourcePoint" />
            <mxPoint x="640" y="230" as="targetPoint" />
          </mxGeometry>
        </mxCell>
        <mxCell id="djypkVxxV7TOkNbvfPKl-34" value="" style="endArrow=classic;html=1;rounded=0;edgeStyle=orthogonalEdgeStyle;" edge="1" parent="1">
          <mxGeometry width="50" height="50" relative="1" as="geometry">
            <mxPoint x="680" y="320" as="sourcePoint" />
            <mxPoint x="660" y="230" as="targetPoint" />
            <Array as="points">
              <mxPoint x="660" y="320" />
            </Array>
          </mxGeometry>
        </mxCell>
        <mxCell id="djypkVxxV7TOkNbvfPKl-35" value="" style="endArrow=classic;html=1;rounded=0;edgeStyle=orthogonalEdgeStyle;" edge="1" parent="1">
          <mxGeometry width="50" height="50" relative="1" as="geometry">
            <mxPoint x="700" y="160" as="sourcePoint" />
            <mxPoint x="999" y="301" as="targetPoint" />
            <Array as="points">
              <mxPoint x="999" y="160" />
            </Array>
          </mxGeometry>
        </mxCell>
        <mxCell id="djypkVxxV7TOkNbvfPKl-36" value="" style="endArrow=classic;html=1;rounded=0;edgeStyle=orthogonalEdgeStyle;" edge="1" parent="1">
          <mxGeometry width="50" height="50" relative="1" as="geometry">
            <mxPoint x="700" y="180" as="sourcePoint" />
            <mxPoint x="740" y="260" as="targetPoint" />
            <Array as="points">
              <mxPoint x="740" y="180" />
            </Array>
          </mxGeometry>
        </mxCell>
        <mxCell id="djypkVxxV7TOkNbvfPKl-37" value="" style="endArrow=classic;html=1;rounded=0;edgeStyle=orthogonalEdgeStyle;entryX=0.5;entryY=1.25;entryDx=0;entryDy=0;entryPerimeter=0;" edge="1" parent="1" target="djypkVxxV7TOkNbvfPKl-27">
          <mxGeometry width="50" height="50" relative="1" as="geometry">
            <mxPoint x="440" y="580" as="sourcePoint" />
            <mxPoint x="1002" y="420" as="targetPoint" />
            <Array as="points">
              <mxPoint x="440" y="620" />
              <mxPoint x="1000" y="620" />
            </Array>
          </mxGeometry>
        </mxCell>
        <mxCell id="djypkVxxV7TOkNbvfPKl-38" value="AWS Cloud" style="points=[[0,0],[0.25,0],[0.5,0],[0.75,0],[1,0],[1,0.25],[1,0.5],[1,0.75],[1,1],[0.75,1],[0.5,1],[0.25,1],[0,1],[0,0.75],[0,0.5],[0,0.25]];outlineConnect=0;gradientColor=none;html=1;whiteSpace=wrap;fontSize=12;fontStyle=0;container=1;pointerEvents=0;collapsible=0;recursiveResize=0;shape=mxgraph.aws4.group;grIcon=mxgraph.aws4.group_aws_cloud_alt;strokeColor=#232F3E;fillColor=none;verticalAlign=top;align=left;spacingLeft=30;fontColor=#232F3E;dashed=0;" vertex="1" parent="1">
          <mxGeometry x="160" y="40" width="660" height="620" as="geometry" />
        </mxCell>
      </root>
    </mxGraphModel>
  </diagram>
</mxfile>
